<svg width="90" height="90" viewBox="0 0 90 90" fill="none" xmlns="http://www.w3.org/2000/svg">
<rect x="0.625" y="0.625" width="88.75" height="88.75" rx="7.375" fill="white"/>
<rect x="0.625" y="0.625" width="88.75" height="88.75" rx="7.375" stroke="#E7E5E4" stroke-width="1.25"/>
<circle cx="25.7261" cy="45" r="6.32812" fill="#7CD957"/>
<path d="M33.4604 42.8969C33.4604 39.6493 36.9761 37.6196 39.7886 39.2434L43.3022 41.272C46.1147 42.8958 46.1147 46.9553 43.3022 48.5791L39.7886 50.6076C36.9761 52.2314 33.4604 50.2017 33.4604 46.9541L33.4604 42.8969Z" fill="#7CD957"/>
<path d="M46.8179 41.4886C46.8179 39.3235 49.1616 37.9703 51.0366 39.0529L56.47 42.1898C58.345 43.2724 58.345 45.9787 56.47 47.0612L51.0366 50.1982C49.1616 51.2807 46.8179 49.9276 46.8179 47.7625L46.8179 41.4886Z" fill="#7CD957"/>
<path d="M59.2822 40.0802C59.2822 38.9977 60.4541 38.3211 61.3916 38.8624L69.8991 43.7742C70.8366 44.3155 70.8366 45.6686 69.8991 46.2099L61.3916 51.1217C60.4541 51.663 59.2822 50.9864 59.2822 49.9039L59.2822 40.0802Z" fill="#7CD957"/>
</svg>
