<svg width="231" height="32" viewBox="0 0 231 32" fill="none" xmlns="http://www.w3.org/2000/svg">
<g clip-path="url(#clip0_1_311)">
<path d="M28.4258 16.2895C28.4258 19.4249 25.973 21.7353 22.9629 21.7353C19.9528 21.7353 17.5 19.4249 17.5 16.2895C17.5 13.1321 19.9528 10.8438 22.9629 10.8438C25.973 10.8438 28.4258 13.1321 28.4258 16.2895ZM26.0344 16.2895C26.0344 14.3303 24.6128 12.9897 22.9629 12.9897C21.313 12.9897 19.8914 14.3303 19.8914 16.2895C19.8914 18.2292 21.313 19.5894 22.9629 19.5894C24.6128 19.5894 26.0344 18.2267 26.0344 16.2895Z" fill="black" fill-opacity="0.2"/>
<path d="M40.2056 16.2895C40.2056 19.4249 37.7528 21.7353 34.7427 21.7353C31.7326 21.7353 29.2798 19.4249 29.2798 16.2895C29.2798 13.1346 31.7326 10.8438 34.7427 10.8438C37.7528 10.8438 40.2056 13.1321 40.2056 16.2895ZM37.8142 16.2895C37.8142 14.3303 36.3926 12.9897 34.7427 12.9897C33.0928 12.9897 31.6712 14.3303 31.6712 16.2895C31.6712 18.2292 33.0928 19.5894 34.7427 19.5894C36.3926 19.5894 37.8142 18.2267 37.8142 16.2895Z" fill="black" fill-opacity="0.2"/>
<path d="M51.5032 11.1728V20.9496C51.5032 24.9713 49.1314 26.6138 46.3275 26.6138C43.6881 26.6138 42.0996 24.8485 41.5005 23.4048L43.5826 22.5381C43.9533 23.4245 44.8617 24.4704 46.3251 24.4704C48.1198 24.4704 49.2321 23.3631 49.2321 21.2786V20.4954H49.1486C48.6133 21.1558 47.5821 21.7328 46.2809 21.7328C43.558 21.7328 41.0635 19.361 41.0635 16.3092C41.0635 13.2352 43.558 10.8438 46.2809 10.8438C47.5797 10.8438 48.6109 11.4208 49.1486 12.0616H49.2321V11.1753H51.5032V11.1728ZM49.4015 16.3092C49.4015 14.3916 48.1223 12.9897 46.4945 12.9897C44.8446 12.9897 43.4622 14.3916 43.4622 16.3092C43.4622 18.2071 44.8446 19.5894 46.4945 19.5894C48.1223 19.5894 49.4015 18.2071 49.4015 16.3092Z" fill="black" fill-opacity="0.2"/>
<path d="M55.2426 5.44226V21.4013H52.9102V5.44226H55.2426Z" fill="black" fill-opacity="0.2"/>
<path d="M64.3351 18.0817L66.1913 19.3191C65.5922 20.2055 64.1485 21.7326 61.654 21.7326C58.5604 21.7326 56.25 19.3412 56.25 16.2869C56.25 13.0484 58.58 10.8412 61.3864 10.8412C64.2123 10.8412 65.5947 13.0902 66.0464 14.3055L66.2944 14.9243L59.0146 17.9393C59.5719 19.0319 60.4386 19.5892 61.654 19.5892C62.8718 19.5892 63.7164 18.9901 64.3351 18.0817ZM58.6218 16.1224L63.4881 14.1017C63.2204 13.4216 62.4151 12.9478 61.4674 12.9478C60.252 12.9478 58.5604 14.0207 58.6218 16.1224Z" fill="black" fill-opacity="0.2"/>
<path d="M8.66601 14.8728V12.5624H16.4516C16.5277 12.9651 16.567 13.4414 16.567 13.957C16.567 15.6904 16.0931 17.8338 14.566 19.361C13.0805 20.9078 11.1826 21.7327 8.66846 21.7327C4.00841 21.7327 0.0898438 17.9369 0.0898438 13.2769C0.0898438 8.61685 4.00841 4.82104 8.66846 4.82104C11.2465 4.82104 13.083 5.8326 14.4628 7.15107L12.8326 8.78135C11.8431 7.85327 10.5025 7.13143 8.66601 7.13143C5.26304 7.13143 2.60156 9.87393 2.60156 13.2769C2.60156 16.6799 5.26304 19.4224 8.66601 19.4224C10.8733 19.4224 12.1304 18.536 12.9357 17.7307C13.5888 17.0776 14.0184 16.1446 14.1878 14.8703L8.66601 14.8728Z" fill="black" fill-opacity="0.2"/>
</g>
<g clip-path="url(#clip1_1_311)">
<path d="M110.267 16.2897C110.267 19.425 107.814 21.7354 104.804 21.7354C101.794 21.7354 99.3413 19.425 99.3413 16.2897C99.3413 13.1322 101.794 10.8439 104.804 10.8439C107.814 10.8439 110.267 13.1322 110.267 16.2897ZM107.876 16.2897C107.876 14.3304 106.454 12.9898 104.804 12.9898C103.154 12.9898 101.733 14.3304 101.733 16.2897C101.733 18.2293 103.154 19.5895 104.804 19.5895C106.454 19.5895 107.876 18.2268 107.876 16.2897Z" fill="black" fill-opacity="0.2"/>
<path d="M122.046 16.2897C122.046 19.425 119.593 21.7354 116.583 21.7354C113.573 21.7354 111.12 19.425 111.12 16.2897C111.12 13.1347 113.573 10.8439 116.583 10.8439C119.593 10.8439 122.046 13.1322 122.046 16.2897ZM119.655 16.2897C119.655 14.3304 118.233 12.9898 116.583 12.9898C114.933 12.9898 113.512 14.3304 113.512 16.2897C113.512 18.2293 114.933 19.5895 116.583 19.5895C118.233 19.5895 119.655 18.2268 119.655 16.2897Z" fill="black" fill-opacity="0.2"/>
<path d="M133.344 11.1729V20.9497C133.344 24.9714 130.972 26.614 128.168 26.614C125.529 26.614 123.94 24.8486 123.341 23.405L125.423 22.5383C125.794 23.4246 126.703 24.4705 128.166 24.4705C129.961 24.4705 131.073 23.3632 131.073 21.2787V20.4955H130.989C130.454 21.1559 129.423 21.7329 128.122 21.7329C125.399 21.7329 122.904 19.3612 122.904 16.3093C122.904 13.2353 125.399 10.8439 128.122 10.8439C129.421 10.8439 130.452 11.4209 130.989 12.0617H131.073V11.1754H133.344V11.1729ZM131.242 16.3093C131.242 14.3918 129.963 12.9898 128.335 12.9898C126.685 12.9898 125.303 14.3918 125.303 16.3093C125.303 18.2072 126.685 19.5895 128.335 19.5895C129.963 19.5895 131.242 18.2072 131.242 16.3093Z" fill="black" fill-opacity="0.2"/>
<path d="M137.083 5.44238V21.4015H134.751V5.44238H137.083Z" fill="black" fill-opacity="0.2"/>
<path d="M146.176 18.0818L148.032 19.3193C147.433 20.2056 145.989 21.7328 143.495 21.7328C140.401 21.7328 138.091 19.3414 138.091 16.287C138.091 13.0486 140.421 10.8413 143.227 10.8413C146.053 10.8413 147.435 13.0903 147.887 14.3057L148.135 14.9244L140.855 17.9394C141.413 19.032 142.279 19.5893 143.495 19.5893C144.713 19.5893 145.557 18.9903 146.176 18.0818ZM140.463 16.1225L145.329 14.1019C145.061 13.4218 144.256 12.9479 143.308 12.9479C142.093 12.9479 140.401 14.0208 140.463 16.1225Z" fill="black" fill-opacity="0.2"/>
<path d="M90.5068 14.8729V12.5625H98.2924C98.3685 12.9652 98.4078 13.4415 98.4078 13.9571C98.4078 15.6905 97.9339 17.8339 96.4068 19.3611C94.9214 20.9079 93.0234 21.7329 90.5093 21.7329C85.8492 21.7329 81.9307 17.9371 81.9307 13.277C81.9307 8.61697 85.8492 4.82117 90.5093 4.82117C93.0873 4.82117 94.9238 5.83273 96.3037 7.15119L94.6734 8.78147C93.6839 7.85339 92.3433 7.13155 90.5068 7.13155C87.1039 7.13155 84.4424 9.87405 84.4424 13.277C84.4424 16.68 87.1039 19.4225 90.5068 19.4225C92.7141 19.4225 93.9712 18.5361 94.7765 17.7308C95.4296 17.0777 95.8593 16.1447 96.0287 14.8705L90.5068 14.8729Z" fill="black" fill-opacity="0.2"/>
</g>
<g clip-path="url(#clip2_1_311)">
<path d="M192.109 16.2897C192.109 19.425 189.657 21.7354 186.647 21.7354C183.636 21.7354 181.184 19.425 181.184 16.2897C181.184 13.1322 183.636 10.8439 186.647 10.8439C189.657 10.8439 192.109 13.1322 192.109 16.2897ZM189.718 16.2897C189.718 14.3304 188.296 12.9898 186.647 12.9898C184.997 12.9898 183.575 14.3304 183.575 16.2897C183.575 18.2293 184.997 19.5895 186.647 19.5895C188.296 19.5895 189.718 18.2268 189.718 16.2897Z" fill="black" fill-opacity="0.2"/>
<path d="M203.889 16.2897C203.889 19.425 201.436 21.7354 198.426 21.7354C195.416 21.7354 192.963 19.425 192.963 16.2897C192.963 13.1347 195.416 10.8439 198.426 10.8439C201.436 10.8439 203.889 13.1322 203.889 16.2897ZM201.497 16.2897C201.497 14.3304 200.076 12.9898 198.426 12.9898C196.776 12.9898 195.354 14.3304 195.354 16.2897C195.354 18.2293 196.776 19.5895 198.426 19.5895C200.076 19.5895 201.497 18.2268 201.497 16.2897Z" fill="black" fill-opacity="0.2"/>
<path d="M215.187 11.1729V20.9497C215.187 24.9714 212.815 26.614 210.011 26.614C207.372 26.614 205.783 24.8486 205.184 23.405L207.266 22.5383C207.637 23.4246 208.545 24.4705 210.009 24.4705C211.803 24.4705 212.916 23.3632 212.916 21.2787V20.4955H212.832C212.297 21.1559 211.266 21.7329 209.964 21.7329C207.242 21.7329 204.747 19.3612 204.747 16.3093C204.747 13.2353 207.242 10.8439 209.964 10.8439C211.263 10.8439 212.294 11.4209 212.832 12.0617H212.916V11.1754H215.187V11.1729ZM213.085 16.3093C213.085 14.3918 211.806 12.9898 210.178 12.9898C208.528 12.9898 207.146 14.3918 207.146 16.3093C207.146 18.2072 208.528 19.5895 210.178 19.5895C211.806 19.5895 213.085 18.2072 213.085 16.3093Z" fill="black" fill-opacity="0.2"/>
<path d="M218.927 5.44238V21.4015H216.594V5.44238H218.927Z" fill="black" fill-opacity="0.2"/>
<path d="M228.019 18.0818L229.875 19.3193C229.276 20.2056 227.832 21.7328 225.338 21.7328C222.244 21.7328 219.934 19.3414 219.934 16.287C219.934 13.0486 222.264 10.8413 225.07 10.8413C227.896 10.8413 229.278 13.0903 229.73 14.3057L229.978 14.9244L222.698 17.9394C223.256 19.032 224.122 19.5893 225.338 19.5893C226.555 19.5893 227.4 18.9903 228.019 18.0818ZM222.305 16.1225L227.172 14.1019C226.904 13.4218 226.099 12.9479 225.151 12.9479C223.936 12.9479 222.244 14.0208 222.305 16.1225Z" fill="black" fill-opacity="0.2"/>
<path d="M172.35 14.8729V12.5625H180.135C180.211 12.9652 180.251 13.4415 180.251 13.9571C180.251 15.6905 179.777 17.8339 178.25 19.3611C176.764 20.9079 174.866 21.7329 172.352 21.7329C167.692 21.7329 163.773 17.9371 163.773 13.277C163.773 8.61697 167.692 4.82117 172.352 4.82117C174.93 4.82117 176.767 5.83273 178.146 7.15119L176.516 8.78147C175.527 7.85339 174.186 7.13155 172.35 7.13155C168.947 7.13155 166.285 9.87405 166.285 13.277C166.285 16.68 168.947 19.4225 172.35 19.4225C174.557 19.4225 175.814 18.5361 176.619 17.7308C177.272 17.0777 177.702 16.1447 177.871 14.8705L172.35 14.8729Z" fill="black" fill-opacity="0.2"/>
</g>
<defs>
<clipPath id="clip0_1_311">
<rect width="66.7826" height="22.5882" fill="white" transform="translate(0 4.70581)"/>
</clipPath>
<clipPath id="clip1_1_311">
<rect width="66.7826" height="22.5882" fill="white" transform="translate(81.8413 4.70593)"/>
</clipPath>
<clipPath id="clip2_1_311">
<rect width="66.7826" height="22.5882" fill="white" transform="translate(163.683 4.70593)"/>
</clipPath>
</defs>
</svg>
