<svg width="14" height="11" viewBox="0 0 14 11" fill="none" xmlns="http://www.w3.org/2000/svg">
<path d="M0.243164 5.55762C0.243164 5.34342 0.325195 5.15658 0.489258 4.99707L4.9873 0.505859C5.06934 0.423828 5.15592 0.362305 5.24707 0.321289C5.33822 0.280273 5.43392 0.259766 5.53418 0.259766C5.74382 0.259766 5.91927 0.328125 6.06055 0.464844C6.20182 0.601562 6.27246 0.772461 6.27246 0.977539C6.27246 1.08691 6.25195 1.18717 6.21094 1.27832C6.16992 1.36491 6.11523 1.44238 6.04688 1.51074L4.51562 3.0625L1.97266 5.39355L1.72656 4.94922L4.09863 4.80566H12.4043C12.6322 4.80566 12.8145 4.8763 12.9512 5.01758C13.0924 5.1543 13.1631 5.33431 13.1631 5.55762C13.1631 5.77637 13.0924 5.95638 12.9512 6.09766C12.8145 6.23438 12.6322 6.30273 12.4043 6.30273H4.09863L1.72656 6.16602L1.97266 5.72852L4.51562 8.05273L6.04688 9.59766C6.11523 9.66602 6.16992 9.74577 6.21094 9.83691C6.25195 9.92806 6.27246 10.026 6.27246 10.1309C6.27246 10.3359 6.20182 10.5068 6.06055 10.6436C5.91927 10.7803 5.74382 10.8486 5.53418 10.8486C5.33366 10.8486 5.15365 10.7712 4.99414 10.6162L0.489258 6.11816C0.325195 5.95866 0.243164 5.77181 0.243164 5.55762Z" fill="#15803D"/>
</svg>
