<svg width="20" height="20" viewBox="0 0 20 20" fill="none" xmlns="http://www.w3.org/2000/svg">
<path opacity="0.9" d="M7.79042 19.5481C8.1508 19.5481 8.47653 19.465 8.76761 19.2986C9.05869 19.1323 9.31511 18.8828 9.53689 18.5501L19.3088 3.14378C19.4336 2.93586 19.5514 2.71409 19.6623 2.47845C19.7732 2.24282 19.8286 2.00718 19.8286 1.77155C19.8286 1.28642 19.6484 0.905242 19.288 0.628024C18.9276 0.336945 18.5257 0.191406 18.0821 0.191406C17.4722 0.191406 16.9733 0.510206 16.5851 1.14781L7.70725 15.4107L3.48661 9.96333C3.22326 9.61681 2.96683 9.38117 2.71733 9.25643C2.4817 9.13168 2.21141 9.0693 1.90647 9.0693C1.4352 9.0693 1.04017 9.24256 0.721365 9.58909C0.402565 9.92175 0.243164 10.3237 0.243164 10.795C0.243164 11.0306 0.284747 11.2663 0.367912 11.5019C0.464938 11.7237 0.589687 11.9385 0.742157 12.1464L5.96078 18.5501C6.238 18.9105 6.52215 19.167 6.81322 19.3194C7.1043 19.4719 7.43003 19.5481 7.79042 19.5481Z" fill="#116631"/>
</svg>
