<svg width="43" height="41" viewBox="0 0 43 41" fill="none" xmlns="http://www.w3.org/2000/svg">
<path opacity="0.9" d="M2.11697 40.5271C1.69252 40.4601 1.34768 40.2444 1.08243 39.8798C0.828707 39.5311 0.734234 39.1514 0.799004 38.7406L6.18148 4.60722C6.3283 3.67618 6.65818 2.96345 7.17115 2.46902C7.69996 1.96306 8.33834 1.60768 9.08627 1.40288C9.64326 1.25216 10.1869 1.14144 10.7173 1.07072C11.2498 0.986302 11.8637 0.96384 12.5591 1.00333C13.2703 1.03129 14.1599 1.12948 15.2279 1.29788C17.131 1.59799 18.8544 2.05918 20.398 2.68147C21.9554 3.30591 23.4482 3.98333 24.8766 4.71372C26.3049 5.44412 27.7693 6.12406 29.2697 6.75356C30.7723 7.36937 32.4272 7.81977 34.2345 8.10476C36.0007 8.38328 37.4063 8.45758 38.4511 8.32766C39.5096 8.1999 40.2922 8.17597 40.7988 8.25585C41.4012 8.35085 41.8841 8.58134 42.2473 8.94733C42.6106 9.31332 42.7479 9.77699 42.6594 10.3384L39.3723 31.184C39.2233 32.1287 38.8913 32.8551 38.3761 33.3632C37.8632 33.8577 37.2259 34.2062 36.4643 34.4088C35.9073 34.5596 35.3625 34.6771 34.83 34.7615C34.2997 34.8323 33.6857 34.8547 32.9882 34.8289C32.2928 34.7894 31.4112 34.6855 30.3432 34.5171C28.5359 34.2321 26.881 33.7817 25.3784 33.1659C23.878 32.5364 22.4125 31.8633 20.982 31.1466C19.5537 30.4162 18.0608 29.7388 16.5035 29.1143C14.962 28.4784 13.2397 28.0103 11.3366 27.7102C9.83046 27.4727 8.58347 27.4164 7.59556 27.5413C6.6235 27.6546 5.99876 27.7455 5.72135 27.814L3.92071 39.2329C3.85378 39.6573 3.64596 39.9964 3.29724 40.2501C2.94853 40.5039 2.5551 40.5962 2.11697 40.5271ZM7.20137 18.4283C7.39226 18.1076 7.94814 17.8305 8.86901 17.5968C9.78989 17.3632 11.0513 17.3726 12.6532 17.6252C13.1461 17.703 13.5479 17.7803 13.8585 17.8574C14.1712 17.9207 14.5229 18.0043 14.9135 18.1079L13.8285 24.988C15.2467 25.3379 16.5608 25.7697 17.7708 26.2832C18.9808 26.7968 20.1533 27.3254 21.2883 27.8693L22.3473 21.1535C23.1783 21.5792 23.9872 21.9663 24.7742 22.315C25.577 22.652 26.383 22.9686 27.1923 23.2646C28.0174 23.549 28.8811 23.8115 29.7834 24.052L28.6952 30.9526C29.0447 31.0498 29.3953 31.1402 29.747 31.2237C30.1008 31.2936 30.4625 31.3576 30.8322 31.4159C32.4341 31.6685 33.6956 31.678 34.6164 31.4443C35.5373 31.2107 36.0932 30.9335 36.2841 30.6128L37.2265 24.6364C36.5117 24.7201 35.6859 24.7513 34.7491 24.7298C33.8123 24.7084 32.7826 24.6092 31.6599 24.4321C31.2902 24.3738 30.9558 24.3141 30.6568 24.2529C30.3714 24.1939 30.0803 24.1269 29.7834 24.052L30.8812 17.0898C31.1803 17.151 31.4851 17.2201 31.7957 17.2971C32.1221 17.3626 32.4428 17.4202 32.7577 17.4699C33.99 17.6642 35.0904 17.7605 36.0588 17.7589C37.041 17.7594 37.7962 17.7312 38.3244 17.6741L39.3121 11.4102C38.5973 11.4939 37.7715 11.5251 36.8347 11.5036C35.898 11.4822 34.8682 11.383 33.7455 11.2059C33.4169 11.1541 33.0962 11.0965 32.7835 11.0332C32.4707 10.9698 32.1659 10.9007 31.869 10.8258L30.8812 17.0898C29.5178 16.7485 28.2369 16.329 27.0384 15.8313C25.8537 15.3358 24.6559 14.7891 23.4452 14.1913L24.433 7.9273C23.2316 7.35899 22.0281 6.80437 20.8225 6.26345C19.6327 5.71099 18.3582 5.25043 16.9991 4.88176L16.0113 11.1457C15.6618 11.0485 15.2759 10.9596 14.8536 10.879C14.4472 10.7868 14.0797 10.7148 13.7511 10.663C12.1492 10.4104 10.8878 10.4009 9.96688 10.6346C9.04601 10.8682 8.49013 11.1454 8.29924 11.4661L7.20137 18.4283ZM14.9135 18.1079L16.0113 11.1457C17.4137 11.5072 18.6961 11.962 19.8585 12.5101C21.0231 13.0446 22.2186 13.6049 23.4452 14.1913L22.3473 21.1535C21.0408 20.5405 19.8247 19.9769 18.699 19.4626C17.5733 18.9483 16.3115 18.4968 14.9135 18.1079Z" fill="white"/>
</svg>
